<?xml version="1.0" encoding="UTF-8"?>
<!DOCTYPE svg PUBLIC "-//W3C//DTD SVG 1.1//EN" "http://www.w3.org/Graphics/SVG/1.1/DTD/svg11.dtd">
<!-- Creator: CorelDRAW 2018 (64-Bit) -->
<svg xmlns="http://www.w3.org/2000/svg" xml:space="preserve" width="210mm" height="297mm" version="1.1" style="shape-rendering:geometricPrecision; text-rendering:geometricPrecision; image-rendering:optimizeQuality; fill-rule:evenodd; clip-rule:evenodd"
viewBox="0 0 21000 29700"
 xmlns:xlink="http://www.w3.org/1999/xlink">
 <defs>
  <style type="text/css">
   <![CDATA[
    .str0 {stroke:#A2D9F7;stroke-width:20;stroke-miterlimit:22.9256}
    .fil1 {fill:#A2D9F7}
    .fil0 {fill:#EDF5F9}
   ]]>
  </style>
 </defs>
 <g id="Слой_x0020_1">
  <metadata id="CorelCorpID_0Corel-Layer"/>
  <path class="fil0" d="M7933.54 12945l5132.92 0c73.05,0 132.29,59.24 132.29,132.29l0 3545.42c0,73.04 -59.24,132.28 -132.29,132.28l-5132.92 0.01c-73.04,-0.01 -132.28,-59.25 -132.28,-132.3l-0.01 -3545.41c0.01,-73.05 59.25,-132.29 132.3,-132.29z"/>
  <path class="fil1 str0" d="M9913.29 13949.33c184.02,-158.68 419.08,-246.47 662.08,-247.24 495.53,0 906.88,368.46 951.65,843.52 293.33,41.5 522.12,287 522.12,588.41 0,330.87 -275.99,594.47 -610.34,594.47l-1640.67 0c-381.9,0 -696.54,-300.99 -696.54,-678.3 0,-324.8 233.25,-593.77 541.97,-661.86 26.32,-158.96 128.6,-317.43 269.73,-439z"/>
 </g>
</svg>
